HIERARCHY
ROOT Hips
{
    OFFSET   0.000000   0.000000   0.000000
    CHANNELS 6 Xposition Yposition Zposition Zrotation Xrotation Yrotation
    JOINT Chest
    {
        OFFSET   0.000000   8.007230   0.000000
        CHANNELS 3 Zrotation Xrotation Yrotation
        JOINT Chest2
        {
            OFFSET   0.000000  22.077100   0.000000
            CHANNELS 3 Zrotation Xrotation Yrotation
            JOINT Neck
            {
                OFFSET   0.000000  23.255100   0.000000
                CHANNELS 3 Zrotation Xrotation Yrotation
                JOINT Head
                {
                    OFFSET   0.000000  14.370100   1.956600
                    CHANNELS 3 Zrotation Xrotation Yrotation
                    End Site
                    {
                        OFFSET   0.000000  19.566000   0.000000
                    }
                }
            }
            JOINT LeftCollar
            {
                OFFSET   3.911900  19.017000  -0.467063
                CHANNELS 3 Zrotation Xrotation Yrotation
                JOINT LeftShoulder
                {
                    OFFSET  10.383700   0.000000   0.000000
                    CHANNELS 3 Zrotation Xrotation Yrotation
                    JOINT LeftElbow
                    {
                        OFFSET  26.662100   0.001193   0.000980
                        CHANNELS 3 Zrotation Xrotation Yrotation
                        JOINT LeftWrist
                        {
                            OFFSET  28.869000  -0.000059  -0.000082
                            CHANNELS 3 Zrotation Xrotation Yrotation
                            JOINT LeftFinger0
                            {
                                OFFSET   2.044650  -2.323450   3.252850
                                CHANNELS 3 Zrotation Xrotation Yrotation
                                JOINT LeftFinger01
                                {
                                    OFFSET   3.088130   0.000000   0.000000
                                    CHANNELS 3 Zrotation Xrotation Yrotation
                                    JOINT LeftFinger02
                                    {
                                        OFFSET   2.639460   0.000000   0.000000
                                        CHANNELS 3 Zrotation Xrotation Yrotation
                                        End Site
                                        {
                                            OFFSET   2.582190   0.000000   0.000000
                                        }
                                    }
                                }
                            }
                            JOINT LeftFinger1
                            {
                                OFFSET   8.364480   0.000000   3.252850
                                CHANNELS 3 Zrotation Xrotation Yrotation
                                JOINT LeftFinger11
                                {
                                    OFFSET   4.646930   0.000000   0.000000
                                    CHANNELS 3 Zrotation Xrotation Yrotation
                                    JOINT LeftFinger12
                                    {
                                        OFFSET   2.323470   0.000000   0.000000
                                        CHANNELS 3 Zrotation Xrotation Yrotation
                                        End Site
                                        {
                                            OFFSET   2.273050   0.000000   0.000000
                                        }
                                    }
                                }
                            }
                            JOINT LeftFinger2
                            {
                                OFFSET   8.364490   0.000016   1.078090
                                CHANNELS 3 Zrotation Xrotation Yrotation
                                JOINT LeftFinger21
                                {
                                    OFFSET   5.111610   0.000000   0.000000
                                    CHANNELS 3 Zrotation Xrotation Yrotation
                                    JOINT LeftFinger22
                                    {
                                        OFFSET   2.788150   0.000016   0.000000
                                        CHANNELS 3 Zrotation Xrotation Yrotation
                                        End Site
                                        {
                                            OFFSET   2.727660   0.000000   0.000000
                                        }
                                    }
                                }
                            }
                            JOINT LeftFinger3
                            {
                                OFFSET   7.899780   0.000015  -1.078090
                                CHANNELS 3 Zrotation Xrotation Yrotation
                                JOINT LeftFinger31
                                {
                                    OFFSET   4.646930   0.000000   0.000000
                                    CHANNELS 3 Zrotation Xrotation Yrotation
                                    JOINT LeftFinger32
                                    {
                                        OFFSET   2.323470   0.000000   0.000000
                                        CHANNELS 3 Zrotation Xrotation Yrotation
                                        End Site
                                        {
                                            OFFSET   2.273050   0.000000   0.000000
                                        }
                                    }
                                }
                            }
                            JOINT LeftFinger4
                            {
                                OFFSET   7.435090   0.000000  -3.252850
                                CHANNELS 3 Zrotation Xrotation Yrotation
                                JOINT LeftFinger41
                                {
                                    OFFSET   3.717550   0.000000   0.000000
                                    CHANNELS 3 Zrotation Xrotation Yrotation
                                    JOINT LeftFinger42
                                    {
                                        OFFSET   1.858770   0.000000   0.000000
                                        CHANNELS 3 Zrotation Xrotation Yrotation
                                        End Site
                                        {
                                            OFFSET   1.818440   0.000000   0.000000
                                        }
                                    }
                                }
                            }
                        }
                    }
                }
            }
            JOINT RightCollar
            {
                OFFSET  -3.911910  19.017000  -0.467062
                CHANNELS 3 Zrotation Xrotation Yrotation
                JOINT RightShoulder
                {
                    OFFSET -10.383700   0.000014   0.000000
                    CHANNELS 3 Zrotation Xrotation Yrotation
                    JOINT RightElbow
                    {
                        OFFSET -26.662100   0.001225   0.001091
                        CHANNELS 3 Zrotation Xrotation Yrotation
                        JOINT RightWrist
                        {
                            OFFSET -28.869000  -0.000020  -0.000085
                            CHANNELS 3 Zrotation Xrotation Yrotation
                            JOINT RightFinger0
                            {
                                OFFSET  -2.044650  -2.323490   3.252850
                                CHANNELS 3 Zrotation Xrotation Yrotation
                                JOINT RightFinger01
                                {
                                    OFFSET  -3.088130   0.000000   0.000000
                                    CHANNELS 3 Zrotation Xrotation Yrotation
                                    JOINT RightFinger02
                                    {
                                        OFFSET  -2.639460   0.000000   0.000000
                                        CHANNELS 3 Zrotation Xrotation Yrotation
                                        End Site
                                        {
                                            OFFSET  -2.582190   0.000000   0.000000
                                        }
                                    }
                                }
                            }
                            JOINT RightFinger1
                            {
                                OFFSET  -8.364480   0.000000   3.252850
                                CHANNELS 3 Zrotation Xrotation Yrotation
                                JOINT RightFinger11
                                {
                                    OFFSET  -4.646930   0.000000   0.000000
                                    CHANNELS 3 Zrotation Xrotation Yrotation
                                    JOINT RightFinger12
                                    {
                                        OFFSET  -2.323470   0.000000   0.000000
                                        CHANNELS 3 Zrotation Xrotation Yrotation
                                        End Site
                                        {
                                            OFFSET  -2.273050   0.000000   0.000000
                                        }
                                    }
                                }
                            }
                            JOINT RightFinger2
                            {
                                OFFSET  -8.364480   0.000000   1.078090
                                CHANNELS 3 Zrotation Xrotation Yrotation
                                JOINT RightFinger21
                                {
                                    OFFSET  -5.111620   0.000000   0.000000
                                    CHANNELS 3 Zrotation Xrotation Yrotation
                                    JOINT RightFinger22
                                    {
                                        OFFSET  -2.788160   0.000000   0.000000
                                        CHANNELS 3 Zrotation Xrotation Yrotation
                                        End Site
                                        {
                                            OFFSET  -2.727660   0.000000   0.000000
                                        }
                                    }
                                }
                            }
                            JOINT RightFinger3
                            {
                                OFFSET  -7.899780   0.000000  -1.078090
                                CHANNELS 3 Zrotation Xrotation Yrotation
                                JOINT RightFinger31
                                {
                                    OFFSET  -4.646930   0.000000   0.000000
                                    CHANNELS 3 Zrotation Xrotation Yrotation
                                    JOINT RightFinger32
                                    {
                                        OFFSET  -2.323470   0.000000   0.000000
                                        CHANNELS 3 Zrotation Xrotation Yrotation
                                        End Site
                                        {
                                            OFFSET  -2.273050   0.000000   0.000000
                                        }
                                    }
                                }
                            }
                            JOINT RightFinger4
                            {
                                OFFSET  -7.435090   0.000000  -3.252850
                                CHANNELS 3 Zrotation Xrotation Yrotation
                                JOINT RightFinger41
                                {
                                    OFFSET  -3.717550   0.000000   0.000000
                                    CHANNELS 3 Zrotation Xrotation Yrotation
                                    JOINT RightFinger42
                                    {
                                        OFFSET  -1.858760   0.000000   0.000000
                                        CHANNELS 3 Zrotation Xrotation Yrotation
                                        End Site
                                        {
                                            OFFSET  -1.818440   0.000000   0.000000
                                        }
                                    }
                                }
                            }
                        }
                    }
                }
            }
        }
    }
    JOINT LeftHip
    {
        OFFSET   9.783030   0.000000   0.000000
        CHANNELS 3 Zrotation Xrotation Yrotation
        JOINT LeftKnee
        {
            OFFSET   0.000063 -41.789100   0.000608
            CHANNELS 3 Zrotation Xrotation Yrotation
            JOINT LeftAnkle
            {
                OFFSET   0.000048 -41.133200  -0.000184
                CHANNELS 3 Zrotation Xrotation Yrotation
                JOINT LeftToe
                {
                    OFFSET   0.000000  -6.358960  14.674500
                    CHANNELS 3 Zrotation Xrotation Yrotation
                    End Site
                    {
                        OFFSET   0.000000   0.000000   3.913200
                    }
                }
            }
        }
    }
    JOINT RightHip
    {
        OFFSET  -9.783030   0.000000   0.000000
        CHANNELS 3 Zrotation Xrotation Yrotation
        JOINT RightKnee
        {
            OFFSET   0.000071 -41.789100   0.001239
            CHANNELS 3 Zrotation Xrotation Yrotation
            JOINT RightAnkle
            {
                OFFSET   0.000037 -41.133200  -0.000166
                CHANNELS 3 Zrotation Xrotation Yrotation
                JOINT RightToe
                {
                    OFFSET   0.000000  -6.358960  14.674500
                    CHANNELS 3 Zrotation Xrotation Yrotation
                    End Site
                    {
                        OFFSET   0.000000   0.000000   3.913200
                    }
                }
            }
        }
    }
}
MOTION
Frames: 4
Frame Time:   0.016667
 -1.626640  89.486800   0.822222  -4.273220 -13.361900  -6.333180   1.838880   6.834520   0.805710   3.619200  13.691000   1.403460   3.952170   1.417660  -0.095902   6.503830   2.833690   0.676072  -4.121760   1.829400  -1.494080 -60.353800  -0.408165 -50.998900  29.478800 -24.399100 -100.048000  62.199900  63.454200 -30.554500  31.341600  56.079400 -74.449200 -74.297100   0.006147   0.021583 -42.821900   0.004388   0.004365   3.271150  -0.618345 -10.699500  -0.000000   0.006313   0.002279  -0.000000   0.006447   0.003745  -1.269100  -0.081344   3.665470  -1.271710   0.011972   0.000261  -0.846965   0.007684   0.000310 -82.450900  -4.954180   0.656053 -82.479300   0.001648   0.004997 -61.859500   0.000670   0.003311 -76.870900  -9.741850   2.260510 -109.993000  -0.000159  -0.002194 -76.986500  -0.001811   0.009736   6.647890   0.494450   4.034300  47.102700  -3.209190  41.330200 -37.903200 -36.710300  79.262600 -69.288400  38.993600  31.434900 -28.326200  60.940900  71.137300  79.068300   0.000124  -0.000170  45.999400   0.009615  -0.006384   5.201440   2.719820  27.531600   4.801110   0.003451   0.000727   3.360750   0.000721   0.000809   5.047340   0.890207   9.979270   5.124890   0.000876   0.000794   3.413190   0.009131  -0.001795  74.128600  -4.914420  -1.395290  74.188500   0.009103  -0.000454  55.641400  -0.001387  -0.005908  85.516800  -9.968530  -0.777728 110.000000  -0.001122  -0.002060  80.000000   0.001038  -0.007281   3.623310  16.992800   4.548120   1.349750   0.075150   9.354010  -3.303220  -3.514840   2.646510  -0.000000   0.000000   0.000000   4.315230  15.313100  -6.574280  -0.099739   1.426270  -6.042080  -1.616160  -4.114060   2.714640   0.000000   0.000000   0.000000
 -1.625150  89.486500   0.834648  -4.261410 -13.346500  -6.299860   1.813140   6.828820   0.804725   3.567470  13.679400   1.403980   3.955430   1.422650  -0.095389   6.508070   2.841230   0.638332  -4.113650   1.814190  -1.490680 -60.389200  -0.384174 -50.964100  29.531100 -24.403100 -100.150000  61.822800  63.485200 -30.257800  30.986000  55.960200 -74.054300 -74.566500   0.006384   0.023080 -43.001300   0.004547   0.004302   2.662850  -0.503303 -10.720600  -0.000000   0.006458   0.002281  -0.000000   0.006497   0.003791  -1.365010  -0.089078   3.726320  -1.367860   0.012281   0.000324  -0.910998   0.007904   0.000325 -82.418000  -4.954220   0.658874 -82.446400   0.001525   0.005200 -61.834800   0.000549   0.003408 -76.807800  -9.741590   2.271140 -109.993000  -0.000157  -0.002207 -76.924400  -0.001731   0.009965   6.659570   0.522065   4.040410  47.139200  -3.191410  41.318000 -38.107200 -36.754500  78.950300 -69.092800  39.081000  31.193600 -28.442100  61.008200  71.194600  79.000000   0.000298  -0.001058  45.954000   0.009782  -0.006458   5.195090   2.722410  27.594600   4.798030   0.003429   0.000561   3.358590   0.000591   0.000632   5.007810   0.877422   9.902410   5.083560   0.000814   0.000614   3.385670   0.009289  -0.002023  74.199400  -4.907230  -1.386640  74.258800   0.009272  -0.000553  55.694100  -0.001356  -0.006072  85.557300  -9.968720  -0.770700 110.000000  -0.001121  -0.001970  80.000000   0.001083  -0.007400   3.614120  16.997400   4.549810   1.348590   0.033413   9.337790  -3.295320  -3.504380   2.637070   0.000000   0.000000  -0.000000   4.309410  15.310300  -6.563080  -0.094356   1.422910  -6.066700  -1.617230  -4.124890   2.695330   0.000000   0.000000   0.000000
 -1.621100  89.486200   0.847693  -4.251160 -13.329200  -6.271540   1.787620   6.822690   0.802685   3.515970  13.666800   1.403990   3.955890   1.425730  -0.094865   6.510100   2.846630   0.603339  -4.101620   1.793440  -1.478280 -60.499500  -0.381072 -50.919000  29.608400 -24.364500 -100.319000  61.391300  63.466100 -29.882700  30.763100  55.886600 -73.807200 -74.734600   0.006629   0.024536 -43.113300   0.004715   0.004248   2.209410  -0.419573 -10.745400  -0.000000   0.006604   0.002284  -0.000000   0.006547   0.003841  -1.474490  -0.096929   3.762520  -1.477630   0.012587   0.000400  -0.984096   0.008126   0.000345 -82.388400  -4.954310   0.661420 -82.416900   0.001407   0.005412 -61.812700   0.000429   0.003510 -76.744900  -9.741210   2.281760 -109.993000  -0.000155  -0.002221 -76.862600  -0.001654   0.010193   6.677720   0.548443   4.047300  47.182300  -3.186340  41.289700 -38.315700 -36.774000  78.681900 -68.883900  39.173800  30.931800 -28.539500  61.044800  71.199000  78.937500   0.000485  -0.002047  45.912500   0.009952  -0.006533   5.190050   2.725490  27.631500   4.794940   0.003397   0.000381   3.356440   0.000460   0.000440   4.940820   0.856832   9.816230   5.014240   0.000760   0.000424   3.339520   0.009449  -0.002266  74.217700  -4.905400  -1.384440  74.276900   0.009432  -0.000658  55.707700  -0.001321  -0.006236  85.564100  -9.968890  -0.769508 110.000000  -0.001120  -0.001875  80.000000   0.001126  -0.007525   3.603860  17.001900   4.554010   1.346590   0.002704   9.313520  -3.286680  -3.493910   2.633480  -0.000000   0.000000  -0.000000   4.302620  15.307200  -6.547720  -0.088292   1.416340  -6.089580  -1.618810  -4.130700   2.678300   0.000000   0.000000   0.000000
 -1.614670  89.485900   0.862256  -4.244130 -13.310200  -6.252770   1.766890   6.816580   0.800210   3.474310  13.654300   1.402010   3.947510   1.426190  -0.094325   6.496640   2.848880   0.578497  -4.094300   1.767900  -1.452960 -60.660500  -0.393678 -50.868000  29.636400 -24.294700 -100.533000  60.923200  63.388400 -29.415600  30.738300  55.928800 -73.785500 -74.722300   0.006888   0.025223 -43.105100   0.004883   0.004201   2.164450  -0.412861 -10.780100  -0.019481   0.006744   0.002285  -0.013637   0.006590   0.003911  -1.520940  -0.098847   3.723250  -1.524200   0.012899   0.000442  -1.015110   0.008352   0.000361 -82.324500  -4.954400   0.667012 -82.353300   0.001288   0.005619 -61.765000   0.000302   0.003612 -76.654500  -9.740660   2.297110 -109.993000  -0.000150  -0.002242 -76.773500  -0.001586   0.010413   6.688040   0.569420   4.055600  47.248300  -3.204070  41.249800 -38.507700 -36.751600  78.478900 -68.762300  39.236700  30.700900 -28.561500  61.014900  71.093800  78.943500   0.000582  -0.002549  45.916500   0.010121  -0.006611   5.194730   2.732700  27.663100   4.802060   0.003361   0.000288   3.361430   0.000329   0.000334   4.872110   0.838673   9.761970   4.943610   0.000715   0.000321   3.292470   0.009611  -0.002538  74.199200  -4.907440  -1.386690  74.258600   0.009590  -0.000773  55.694000  -0.001292  -0.006395  85.540900  -9.969070  -0.773578 110.000000  -0.001134  -0.001783  80.000000   0.001162  -0.007662   3.599000  16.938200   4.560950   1.343430   0.100592   9.276290  -3.283000  -3.553140   2.644880   0.000000   0.000000   0.000000   4.297530  15.306100  -6.544280  -0.080017   1.400480  -6.096710  -1.622610  -4.130220   2.666510   0.000000   0.000000   0.000000
